<svg width="585" height="60" viewBox="0 0 585 60" fill="none" xmlns="http://www.w3.org/2000/svg">
<path d="M94.56 45H74.6V40.8L81.76 33.56C83.2 32.0667 84.36 30.8267 85.24 29.84C86.12 28.8267 86.76 27.92 87.16 27.12C87.56 26.2933 87.76 25.4133 87.76 24.48C87.76 23.3333 87.44 22.48 86.8 21.92C86.1867 21.36 85.3467 21.08 84.28 21.08C83.1867 21.08 82.12 21.3333 81.08 21.84C80.04 22.3467 78.9467 23.0667 77.8 24L74.52 20.12C75.3467 19.4 76.2133 18.7333 77.12 18.12C78.0533 17.5067 79.12 17.0133 80.32 16.64C81.5467 16.24 83.0133 16.04 84.72 16.04C86.5867 16.04 88.1867 16.3867 89.52 17.08C90.88 17.7467 91.92 18.6667 92.64 19.84C93.3867 20.9867 93.76 22.2933 93.76 23.76C93.76 25.3333 93.44 26.7733 92.8 28.08C92.1867 29.3867 91.28 30.68 90.08 31.96C88.9067 33.24 87.48 34.6533 85.8 36.2L82.12 39.64V39.92H94.56V45ZM118.091 39.08H114.651V45H108.771V39.08H96.5706V34.88L109.091 16.44H114.651V34.4H118.091V39.08ZM108.771 34.4V29.56C108.771 28.9467 108.784 28.2 108.811 27.32C108.837 26.44 108.864 25.6267 108.891 24.88C108.944 24.1067 108.984 23.6 109.011 23.36H108.851C108.611 23.8933 108.357 24.4133 108.091 24.92C107.824 25.4267 107.504 25.9467 107.131 26.48L101.891 34.4H108.771ZM135.101 16.44L124.461 45H119.061L129.701 16.44H135.101ZM139.745 45L150.465 21.52H136.385V16.44H156.865V20.24L146.065 45H139.745ZM195.426 16.44V34.92C195.426 36.8933 194.986 38.68 194.106 40.28C193.253 41.8533 191.946 43.1067 190.186 44.04C188.453 44.9467 186.253 45.4 183.586 45.4C179.799 45.4 176.919 44.44 174.946 42.52C172.973 40.5733 171.986 38.0133 171.986 34.84V16.44H178.026V33.92C178.026 36.2667 178.506 37.92 179.466 38.88C180.426 39.84 181.853 40.32 183.746 40.32C185.719 40.32 187.146 39.8 188.026 38.76C188.933 37.72 189.386 36.0933 189.386 33.88V16.44H195.426ZM214.14 22.76C214.434 22.76 214.78 22.7733 215.18 22.8C215.58 22.8267 215.9 22.8667 216.14 22.92L215.7 28.52C215.514 28.4667 215.234 28.4267 214.86 28.4C214.514 28.3467 214.207 28.32 213.94 28.32C212.927 28.32 211.954 28.5067 211.02 28.88C210.087 29.2267 209.327 29.8 208.74 30.6C208.18 31.4 207.9 32.4933 207.9 33.88V45H201.94V23.16H206.46L207.34 26.84H207.62C208.26 25.72 209.14 24.76 210.26 23.96C211.38 23.16 212.674 22.76 214.14 22.76ZM226.794 22.76C229.487 22.76 231.594 23.8267 233.114 25.96H233.274L233.754 23.16H238.794V45.04C238.794 48.16 237.874 50.5333 236.034 52.16C234.194 53.7867 231.474 54.6 227.874 54.6C226.327 54.6 224.887 54.5067 223.554 54.32C222.247 54.1333 220.967 53.8 219.714 53.32V48.56C222.407 49.68 225.247 50.24 228.234 50.24C231.3 50.24 232.834 48.5867 232.834 45.28V44.84C232.834 44.3867 232.847 43.92 232.874 43.44C232.927 42.96 232.967 42.5333 232.994 42.16H232.834C232.087 43.3067 231.194 44.1333 230.154 44.64C229.114 45.1467 227.94 45.4 226.634 45.4C224.047 45.4 222.02 44.4133 220.554 42.44C219.114 40.44 218.394 37.6667 218.394 34.12C218.394 30.5467 219.14 27.76 220.634 25.76C222.127 23.76 224.18 22.76 226.794 22.76ZM228.674 27.6C225.874 27.6 224.474 29.8 224.474 34.2C224.474 38.5467 225.9 40.72 228.754 40.72C230.274 40.72 231.394 40.2933 232.114 39.44C232.86 38.56 233.234 37.04 233.234 34.88V34.16C233.234 31.8133 232.874 30.1333 232.154 29.12C231.434 28.1067 230.274 27.6 228.674 27.6ZM254.026 22.76C257.04 22.76 259.426 23.6267 261.186 25.36C262.946 27.0667 263.826 29.5067 263.826 32.68V35.56H249.746C249.8 37.24 250.293 38.56 251.226 39.52C252.186 40.48 253.506 40.96 255.186 40.96C256.6 40.96 257.88 40.8267 259.026 40.56C260.173 40.2667 261.36 39.8267 262.586 39.24V43.84C261.52 44.3733 260.386 44.76 259.186 45C258.013 45.2667 256.586 45.4 254.906 45.4C252.72 45.4 250.786 45 249.106 44.2C247.426 43.3733 246.106 42.1333 245.146 40.48C244.186 38.8267 243.706 36.7467 243.706 34.24C243.706 31.68 244.133 29.56 244.986 27.88C245.866 26.1733 247.08 24.8933 248.626 24.04C250.173 23.1867 251.973 22.76 254.026 22.76ZM254.066 27C252.92 27 251.96 27.3733 251.186 28.12C250.44 28.8667 250 30.0267 249.866 31.6H258.226C258.2 30.2667 257.853 29.1733 257.186 28.32C256.52 27.44 255.48 27 254.066 27ZM281.059 22.76C283.406 22.76 285.286 23.4 286.699 24.68C288.112 25.9333 288.819 27.96 288.819 30.76V45H282.859V32.24C282.859 30.6667 282.579 29.4933 282.019 28.72C281.459 27.92 280.566 27.52 279.339 27.52C277.526 27.52 276.286 28.1467 275.619 29.4C274.952 30.6267 274.619 32.4 274.619 34.72V45H268.659V23.16H273.219L274.019 25.96H274.339C275.032 24.84 275.979 24.0267 277.179 23.52C278.406 23.0133 279.699 22.76 281.059 22.76ZM304.148 40.64C304.815 40.64 305.455 40.5733 306.068 40.44C306.681 40.3067 307.295 40.1467 307.908 39.96V44.4C307.268 44.6667 306.468 44.8933 305.508 45.08C304.575 45.2933 303.548 45.4 302.428 45.4C301.121 45.4 299.948 45.1867 298.908 44.76C297.895 44.3333 297.081 43.6 296.468 42.56C295.881 41.4933 295.588 40.0267 295.588 38.16V27.64H292.748V25.12L296.028 23.12L297.748 18.52H301.548V23.16H307.668V27.64H301.548V38.16C301.548 38.9867 301.788 39.6133 302.268 40.04C302.748 40.44 303.375 40.64 304.148 40.64ZM346.843 30.44C346.843 35.2667 345.469 38.9067 342.723 41.36C340.003 43.7867 336.176 45 331.243 45H323.163V16.44H332.123C335.109 16.44 337.696 16.9733 339.883 18.04C342.096 19.1067 343.803 20.68 345.003 22.76C346.229 24.8133 346.843 27.3733 346.843 30.44ZM340.563 30.6C340.563 27.4267 339.869 25.1067 338.483 23.64C337.096 22.1467 335.083 21.4 332.443 21.4H329.203V40H331.803C337.643 40 340.563 36.8667 340.563 30.6ZM361.292 22.76C364.305 22.76 366.692 23.6267 368.452 25.36C370.212 27.0667 371.092 29.5067 371.092 32.68V35.56H357.012C357.065 37.24 357.559 38.56 358.492 39.52C359.452 40.48 360.772 40.96 362.452 40.96C363.865 40.96 365.145 40.8267 366.292 40.56C367.439 40.2667 368.625 39.8267 369.852 39.24V43.84C368.785 44.3733 367.652 44.76 366.452 45C365.279 45.2667 363.852 45.4 362.172 45.4C359.985 45.4 358.052 45 356.372 44.2C354.692 43.3733 353.372 42.1333 352.412 40.48C351.452 38.8267 350.972 36.7467 350.972 34.24C350.972 31.68 351.399 29.56 352.252 27.88C353.132 26.1733 354.345 24.8933 355.892 24.04C357.439 23.1867 359.239 22.76 361.292 22.76ZM361.332 27C360.185 27 359.225 27.3733 358.452 28.12C357.705 28.8667 357.265 30.0267 357.132 31.6H365.492C365.465 30.2667 365.119 29.1733 364.452 28.32C363.785 27.44 362.745 27 361.332 27ZM388.325 22.76C390.671 22.76 392.551 23.4 393.965 24.68C395.378 25.9333 396.085 27.96 396.085 30.76V45H390.125V32.24C390.125 30.6667 389.845 29.4933 389.285 28.72C388.725 27.92 387.831 27.52 386.605 27.52C384.791 27.52 383.551 28.1467 382.885 29.4C382.218 30.6267 381.885 32.4 381.885 34.72V45H375.925V23.16H380.485L381.285 25.96H381.605C382.298 24.84 383.245 24.0267 384.445 23.52C385.671 23.0133 386.965 22.76 388.325 22.76ZM411.414 40.64C412.08 40.64 412.72 40.5733 413.334 40.44C413.947 40.3067 414.56 40.1467 415.174 39.96V44.4C414.534 44.6667 413.734 44.8933 412.774 45.08C411.84 45.2933 410.814 45.4 409.694 45.4C408.387 45.4 407.214 45.1867 406.174 44.76C405.16 44.3333 404.347 43.6 403.734 42.56C403.147 41.4933 402.854 40.0267 402.854 38.16V27.64H400.014V25.12L403.294 23.12L405.014 18.52H408.814V23.16H414.934V27.64H408.814V38.16C408.814 38.9867 409.054 39.6133 409.534 40.04C410.014 40.44 410.64 40.64 411.414 40.64ZM428.518 22.72C431.451 22.72 433.691 23.36 435.238 24.64C436.811 25.8933 437.598 27.8267 437.598 30.44V45H433.438L432.278 42.04H432.118C431.184 43.2133 430.198 44.0667 429.158 44.6C428.118 45.1333 426.691 45.4 424.878 45.4C422.931 45.4 421.318 44.84 420.038 43.72C418.758 42.5733 418.118 40.8267 418.118 38.48C418.118 36.16 418.931 34.4533 420.558 33.36C422.184 32.24 424.624 31.6267 427.878 31.52L431.678 31.4V30.44C431.678 29.2933 431.371 28.4533 430.758 27.92C430.171 27.3867 429.344 27.12 428.278 27.12C427.211 27.12 426.171 27.28 425.158 27.6C424.144 27.8933 423.131 28.2667 422.118 28.72L420.158 24.68C421.331 24.0667 422.624 23.5867 424.038 23.24C425.478 22.8933 426.971 22.72 428.518 22.72ZM431.678 34.88L429.358 34.96C427.438 35.0133 426.104 35.36 425.358 36C424.611 36.64 424.238 37.48 424.238 38.52C424.238 39.4267 424.504 40.08 425.038 40.48C425.571 40.8533 426.264 41.04 427.118 41.04C428.398 41.04 429.478 40.6667 430.358 39.92C431.238 39.1467 431.678 38.0667 431.678 36.68V34.88ZM449.658 45H443.698V14.6H449.658V45Z" fill="#022C53"/>
<path d="M51.3726 12.8265C49.8914 8.29797 46.4582 4.84184 42.2121 3.58852C36.7288 1.90751 31.9177 2.98414 28.5368 4.42907C25.8747 2.85461 22.6951 2 19.4393 2C15.8938 2 12.5032 2.98468 9.63434 4.8475C8.27737 5.72902 7.01394 6.83396 5.97807 8.04698C5.85835 8.17705 5.76931 8.30287 5.70114 8.41246C3.27912 11.4097 2 14.9592 2 18.6832C2 22.6568 3.491 26.4989 6.20195 29.5146C6.2693 29.608 6.34485 29.7077 6.42121 29.8088C6.50056 29.9141 6.57991 30.018 6.64347 30.1084C6.66665 30.1409 6.69064 30.1728 6.71532 30.2039C7.7272 31.4784 8.73169 36.3441 9.16053 38.4217C9.27356 38.9703 9.3731 39.4524 9.45395 39.8108C9.66652 40.8146 9.88279 41.8998 10.0235 43.0307C10.4943 46.8862 11.2816 50.037 12.352 52.3684C13.8407 55.7432 15.9356 57.5592 18.5792 57.7671C18.6413 57.772 18.7042 57.7748 18.7663 57.7748H19.0657C22.344 57.7748 24.1658 54.2127 25.5159 50.7276C25.5271 50.6978 25.5376 50.6688 25.5474 50.6392L27.3939 45.1352L29.1962 50.6265C29.2074 50.6604 29.2187 50.6943 29.2321 50.7282C30.5031 54.0092 32.3855 57.7757 35.6818 57.7757H35.9812C36.0456 57.7757 36.1107 57.7728 36.1751 57.7679C37.9924 57.6188 40.5461 56.5612 42.3926 52.3749C43.3963 50.1121 44.1357 47.1557 44.7218 43.0373C44.864 41.8991 45.0802 40.8154 45.2876 39.8364C45.373 39.4547 45.4725 38.9739 45.5855 38.4267C46.0137 36.3477 47.0181 31.4806 48.0397 30.1941C52.065 25.0469 53.3081 18.5467 51.3726 12.8265Z" fill="white"/>
<path d="M27.3835 48.3103L26.4968 50.9533C26.4966 50.9541 26.4963 50.9548 26.4961 50.9555C26.4808 51.0016 26.4656 51.0434 26.4519 51.0797L26.4485 51.0888L26.4484 51.0888C25.7681 52.8449 24.9323 54.724 23.8025 56.173C22.6604 57.6378 21.1248 58.7748 19.0657 58.7748H18.7663C18.6742 58.7748 18.5849 58.7706 18.5006 58.764M27.3835 48.3103L18.5792 57.7671M27.3835 48.3103L28.2461 50.9383L28.2467 50.9401L28.2478 50.9434C28.2581 50.9747 28.2763 51.0299 28.2996 51.0895C28.9413 52.7458 29.7714 54.621 30.9053 56.0926C32.0444 57.571 33.5989 58.7757 35.6818 58.7757H35.9812C36.0744 58.7757 36.1652 58.7716 36.2511 58.7651L36.2569 58.7646C37.3251 58.6769 38.6007 58.3211 39.8653 57.391C41.1271 56.463 42.3268 55.0014 43.3067 52.7804C44.3644 50.3958 45.1202 47.3357 45.7118 43.1782L45.713 43.1697L45.714 43.1613C45.8506 42.0686 46.059 41.0205 46.2647 40.0492C46.3519 39.6588 46.4528 39.1713 46.5649 38.629L46.565 38.6284C46.7795 37.5867 47.1326 35.8757 47.5569 34.2685C47.7693 33.4643 47.9951 32.703 48.2248 32.0738C48.4652 31.4155 48.6749 31.0022 48.8229 30.816L48.8275 30.8101C53.0395 25.4241 54.3725 18.578 52.3214 12.5106C50.7465 7.70059 47.0842 3.98592 42.5003 2.63093C36.9779 0.939398 32.1072 1.90955 28.6071 3.31739C25.8781 1.80886 22.6903 1 19.4393 1C15.708 1 12.1269 2.03672 9.08975 4.0088L9.08958 4.00891C7.65831 4.9387 6.3261 6.10224 5.22884 7.38446C5.0852 7.54237 4.97396 7.69475 4.8872 7.82881C2.35015 10.988 1 14.7407 1 18.6832C1 22.892 2.57317 26.9548 5.4231 30.1439C5.48337 30.2263 5.54703 30.3106 5.60574 30.3883L5.62247 30.4104L6.42121 29.8088L5.62324 30.4114L5.62293 30.411M27.3835 48.3103L5.62293 30.411M18.5006 58.764L18.5792 57.7671M18.5006 58.764C18.5006 58.764 18.5007 58.764 18.5008 58.764L18.5792 57.7671M18.5006 58.764C15.3542 58.5165 13.0113 56.3368 11.4401 52.7788M18.5792 57.7671C15.9356 57.5592 13.8407 55.7432 12.352 52.3684M11.4401 52.7788C11.4411 52.7811 11.4421 52.7833 11.4432 52.7856L12.352 52.3684M11.4401 52.7788C10.3125 50.32 9.50824 47.0605 9.03101 43.1531M11.4401 52.7788C11.439 52.7765 11.438 52.7742 11.437 52.772L12.352 52.3684M12.352 52.3684L9.03101 43.1531M9.03101 43.1531C9.03106 43.1534 9.0311 43.1538 9.03115 43.1542L10.0235 43.0307L9.03087 43.152C9.03092 43.1523 9.03096 43.1527 9.03101 43.1531ZM9.03101 43.1531C8.89603 42.0686 8.68779 41.0201 8.47699 40.0243M9.03101 43.1531L9.45395 39.8108M8.47699 40.0243C8.47748 40.0265 8.47797 40.0287 8.47847 40.0308L9.45395 39.8108M8.47699 40.0243C8.47654 40.0222 8.47609 40.0201 8.47565 40.0179L9.45395 39.8108M8.47699 40.0243C8.39392 39.6556 8.29284 39.1659 8.18117 38.6239M9.45395 39.8108C9.3731 39.4524 9.27356 38.9703 9.16053 38.4217C8.73169 36.3441 7.7272 31.4784 6.71532 30.2039M8.18117 38.6239L9.1604 38.4218L8.1811 38.6235C8.18112 38.6236 8.18115 38.6238 8.18117 38.6239ZM8.18117 38.6239C7.96625 37.5826 7.61294 35.8721 7.18961 34.2666C6.9778 33.4632 6.75282 32.7032 6.52431 32.0756C6.28502 31.4183 6.07714 31.0083 5.93213 30.8256M5.93213 30.8256C5.93227 30.8258 5.93241 30.826 5.93254 30.8262L6.71532 30.2039M5.93213 30.8256C5.89631 30.7806 5.86214 30.7351 5.82968 30.6896L5.82532 30.6835L5.82534 30.6835C5.78266 30.6227 5.73056 30.5537 5.66422 30.4658C5.65103 30.4483 5.63728 30.4301 5.62293 30.411M5.93213 30.8256L6.71532 30.2039M6.71532 30.2039C6.69064 30.1728 6.66665 30.1409 6.64347 30.1084L5.62293 30.411" stroke="#71AAF8" stroke-opacity="0.4" stroke-width="2"/>
<path fill-rule="evenodd" clip-rule="evenodd" d="M36.9878 29.0213C38.2684 29.0213 39.3203 28.0377 39.3203 26.8352V23.6448C39.3203 22.4423 38.2685 21.4587 36.9878 21.4587H31.5395V16.3423C31.5395 15.1398 30.4921 14.1562 29.2114 14.1562H25.8184C24.5333 14.1562 23.4858 15.1398 23.4858 16.3423V21.4586H18.0376C16.757 21.4586 15.7095 22.4421 15.7095 23.6447V26.835C15.7095 28.0376 16.757 29.0211 18.0376 29.0211H23.4858V34.1374C23.4858 35.3399 24.5333 36.3235 25.8184 36.3235H29.2114C30.4921 36.3235 31.5395 35.3399 31.5395 34.1374V29.0211H36.9878V29.0213Z" fill="#EC5347"/>
</svg>
