<svg width="55" height="60" viewBox="0 0 55 60" fill="none" xmlns="http://www.w3.org/2000/svg">
<path d="M51.3726 12.8265C49.8914 8.29797 46.4582 4.84184 42.2121 3.58852C36.7288 1.90751 31.9177 2.98414 28.5368 4.42907C25.8747 2.85461 22.6951 2 19.4393 2C15.8938 2 12.5032 2.98468 9.63434 4.8475C8.27737 5.72902 7.01394 6.83396 5.97807 8.04698C5.85835 8.17705 5.76931 8.30287 5.70114 8.41246C3.27912 11.4097 2 14.9592 2 18.6832C2 22.6568 3.491 26.4989 6.20195 29.5146C6.2693 29.608 6.34485 29.7077 6.42121 29.8088C6.50056 29.9141 6.57991 30.018 6.64347 30.1084C6.66665 30.1409 6.69064 30.1728 6.71532 30.2039C7.7272 31.4784 8.73169 36.3441 9.16053 38.4217C9.27356 38.9703 9.3731 39.4524 9.45395 39.8108C9.66652 40.8146 9.88279 41.8998 10.0235 43.0307C10.4943 46.8862 11.2816 50.037 12.352 52.3684C13.8407 55.7432 15.9356 57.5592 18.5792 57.7671C18.6413 57.772 18.7042 57.7748 18.7663 57.7748H19.0657C22.344 57.7748 24.1658 54.2127 25.5159 50.7276C25.5271 50.6978 25.5376 50.6688 25.5474 50.6392L27.3939 45.1352L29.1962 50.6265C29.2074 50.6604 29.2187 50.6943 29.2321 50.7282C30.5031 54.0092 32.3855 57.7757 35.6818 57.7757H35.9812C36.0456 57.7757 36.1107 57.7728 36.1751 57.7679C37.9924 57.6188 40.5461 56.5612 42.3926 52.3749C43.3963 50.1121 44.1357 47.1557 44.7218 43.0373C44.864 41.8991 45.0802 40.8154 45.2876 39.8364C45.373 39.4547 45.4725 38.9739 45.5855 38.4267C46.0137 36.3477 47.0181 31.4806 48.0397 30.1941C52.065 25.0469 53.3081 18.5467 51.3726 12.8265Z" fill="white"/>
<path d="M27.3835 48.3103L26.4968 50.9533C26.4966 50.9541 26.4963 50.9548 26.4961 50.9555C26.4808 51.0016 26.4656 51.0434 26.4519 51.0797L26.4485 51.0888L26.4484 51.0888C25.7681 52.8449 24.9323 54.724 23.8025 56.173C22.6604 57.6378 21.1248 58.7748 19.0657 58.7748H18.7663C18.6742 58.7748 18.5849 58.7706 18.5006 58.764M27.3835 48.3103L18.5792 57.7671M27.3835 48.3103L28.2461 50.9383L28.2467 50.9401L28.2478 50.9434C28.2581 50.9747 28.2763 51.0299 28.2996 51.0895C28.9413 52.7458 29.7714 54.621 30.9053 56.0926C32.0444 57.571 33.5989 58.7757 35.6818 58.7757H35.9812C36.0744 58.7757 36.1652 58.7716 36.2511 58.7651L36.2569 58.7646C37.3251 58.6769 38.6007 58.3211 39.8653 57.391C41.1271 56.463 42.3268 55.0014 43.3067 52.7804C44.3644 50.3958 45.1202 47.3357 45.7118 43.1782L45.713 43.1697L45.714 43.1613C45.8506 42.0686 46.059 41.0205 46.2647 40.0492C46.3519 39.6588 46.4528 39.1713 46.5649 38.629L46.565 38.6284C46.7795 37.5867 47.1326 35.8757 47.5569 34.2685C47.7693 33.4643 47.9951 32.703 48.2248 32.0738C48.4652 31.4155 48.6749 31.0022 48.8229 30.816L48.8275 30.8101C53.0395 25.4241 54.3725 18.578 52.3214 12.5106C50.7465 7.70059 47.0842 3.98592 42.5003 2.63093C36.9779 0.939398 32.1072 1.90955 28.6071 3.31739C25.8781 1.80886 22.6903 1 19.4393 1C15.708 1 12.1269 2.03672 9.08975 4.0088L9.08958 4.00891C7.65831 4.9387 6.3261 6.10224 5.22884 7.38446C5.0852 7.54237 4.97396 7.69475 4.8872 7.82881C2.35015 10.988 1 14.7407 1 18.6832C1 22.892 2.57317 26.9548 5.4231 30.1439C5.48337 30.2263 5.54703 30.3106 5.60574 30.3883L5.62247 30.4104L6.42121 29.8088L5.62324 30.4114L5.62293 30.411M27.3835 48.3103L5.62293 30.411M18.5006 58.764L18.5792 57.7671M18.5006 58.764C18.5006 58.764 18.5007 58.764 18.5008 58.764L18.5792 57.7671M18.5006 58.764C15.3542 58.5165 13.0113 56.3368 11.4401 52.7788M18.5792 57.7671C15.9356 57.5592 13.8407 55.7432 12.352 52.3684M11.4401 52.7788C11.4411 52.7811 11.4421 52.7833 11.4432 52.7856L12.352 52.3684M11.4401 52.7788C10.3125 50.32 9.50824 47.0605 9.03101 43.1531M11.4401 52.7788C11.439 52.7765 11.438 52.7742 11.437 52.772L12.352 52.3684M12.352 52.3684L9.03101 43.1531M9.03101 43.1531C9.03106 43.1534 9.0311 43.1538 9.03115 43.1542L10.0235 43.0307L9.03087 43.152C9.03092 43.1523 9.03096 43.1527 9.03101 43.1531ZM9.03101 43.1531C8.89603 42.0686 8.68779 41.0201 8.47699 40.0243M9.03101 43.1531L9.45395 39.8108M8.47699 40.0243C8.47748 40.0265 8.47797 40.0287 8.47847 40.0308L9.45395 39.8108M8.47699 40.0243C8.47654 40.0222 8.47609 40.0201 8.47565 40.0179L9.45395 39.8108M8.47699 40.0243C8.39392 39.6556 8.29284 39.1659 8.18117 38.6239M9.45395 39.8108C9.3731 39.4524 9.27356 38.9703 9.16053 38.4217C8.73169 36.3441 7.7272 31.4784 6.71532 30.2039M8.18117 38.6239L9.1604 38.4218L8.1811 38.6235C8.18112 38.6236 8.18115 38.6238 8.18117 38.6239ZM8.18117 38.6239C7.96625 37.5826 7.61294 35.8721 7.18961 34.2666C6.9778 33.4632 6.75282 32.7032 6.52431 32.0756C6.28502 31.4183 6.07714 31.0083 5.93213 30.8256M5.93213 30.8256C5.93227 30.8258 5.93241 30.826 5.93254 30.8262L6.71532 30.2039M5.93213 30.8256C5.89631 30.7806 5.86214 30.7351 5.82968 30.6896L5.82532 30.6835L5.82534 30.6835C5.78266 30.6227 5.73056 30.5537 5.66422 30.4658C5.65103 30.4483 5.63728 30.4301 5.62293 30.411M5.93213 30.8256L6.71532 30.2039M6.71532 30.2039C6.69064 30.1728 6.66665 30.1409 6.64347 30.1084L5.62293 30.411" stroke="#71AAF8" stroke-opacity="0.4" stroke-width="2"/>
<path fill-rule="evenodd" clip-rule="evenodd" d="M36.9878 29.0213C38.2684 29.0213 39.3203 28.0377 39.3203 26.8352V23.6448C39.3203 22.4423 38.2685 21.4587 36.9878 21.4587H31.5395V16.3423C31.5395 15.1398 30.4921 14.1562 29.2114 14.1562H25.8184C24.5333 14.1562 23.4858 15.1398 23.4858 16.3423V21.4586H18.0376C16.757 21.4586 15.7095 22.4421 15.7095 23.6447V26.835C15.7095 28.0376 16.757 29.0211 18.0376 29.0211H23.4858V34.1374C23.4858 35.3399 24.5333 36.3235 25.8184 36.3235H29.2114C30.4921 36.3235 31.5395 35.3399 31.5395 34.1374V29.0211H36.9878V29.0213Z" fill="#EC5347"/>
</svg>
