<svg width="349" height="349" viewBox="0 0 349 349" fill="none" xmlns="http://www.w3.org/2000/svg">
<g clip-path="url(#clip0)">
<path d="M174.76 348.48C270.99 348.48 349 270.47 349 174.24C349 78.0099 270.99 0 174.76 0C78.5299 0 0.52002 78.0099 0.52002 174.24C0.52002 270.47 78.5299 348.48 174.76 348.48Z" fill="#022C53"/>
<path opacity="0.1" d="M206.74 86.4302L74.935 132.822V147.669L76.8223 149.557L74.935 150.247V165.093L76.8223 166.981L74.935 167.671V182.517L76.8223 184.405L74.935 185.095V199.941L76.8223 201.829L74.935 202.519V217.366L203.627 346.058C283.008 332.816 344.223 265.945 348.719 183.928L274.585 109.771L206.74 86.4302Z" fill="black"/>
<path d="M242.333 183.209L206.758 170.952L137.618 195.296L74.935 202.531V217.366L142.761 240.736L274.585 194.321V179.486L242.333 183.209Z" fill="#31978C"/>
<path d="M206.758 156.116L74.935 202.531L142.761 225.901L274.585 179.486L206.758 156.116Z" fill="#3EA69B"/>
<path d="M133.809 219.477L93.4728 205.579C98.335 203.867 98.2918 201.107 93.3771 199.413L198.007 162.574C202.922 164.268 210.847 164.252 215.71 162.541L256.046 176.438C251.184 178.15 251.227 180.91 256.141 182.604L151.512 219.444C146.597 217.751 138.671 217.765 133.809 219.477Z" fill="#44C4A1"/>
<path d="M192.84 184.642C205.619 189.045 207.882 195.464 197.896 198.98C187.91 202.496 169.457 201.777 156.679 197.375C143.901 192.972 141.638 186.553 151.624 183.037C161.609 179.521 180.062 180.24 192.84 184.642Z" fill="#3EA69B"/>
<path d="M230.06 171.537C232.344 172.324 232.364 173.607 230.105 174.402C227.845 175.198 224.162 175.205 221.878 174.418C219.594 173.631 219.574 172.348 221.834 171.553C224.093 170.757 227.776 170.75 230.06 171.537Z" fill="#3EA69B"/>
<path d="M127.642 207.598C129.926 208.385 129.946 209.668 127.686 210.464C125.427 211.26 121.744 211.267 119.46 210.48C117.176 209.693 117.156 208.41 119.415 207.615C121.674 206.819 125.357 206.812 127.642 207.598Z" fill="#3EA69B"/>
<path d="M192.415 197.772L189.134 196.642C184.651 197.928 179.37 198.649 173.295 198.805L172.631 196.315C177.308 196.192 181.173 195.738 184.236 194.954L175.514 191.949C171.355 192.85 167.837 193.347 164.962 193.441C162.087 193.534 159.354 193.134 156.762 192.241C154.17 191.348 152.944 190.303 153.088 189.102C153.235 187.903 154.672 186.771 157.398 185.706L155.15 184.932L157.995 183.93L160.287 184.72C163.789 183.655 167.996 182.957 172.91 182.625L174.154 185.068C170.788 185.272 167.801 185.718 165.187 186.408L173.638 189.32L173.772 189.273C177.991 188.352 181.589 187.847 184.566 187.759C187.549 187.669 190.349 188.077 192.97 188.98C195.593 189.884 196.811 190.944 196.619 192.158C196.43 193.374 194.9 194.538 192.024 195.655L195.26 196.771L192.415 197.772ZM160.262 188.88C160.179 189.378 160.642 189.8 161.646 190.146C162.65 190.492 163.741 190.661 164.918 190.653C166.093 190.647 167.784 190.443 169.984 190.044L162.207 187.364C160.992 187.876 160.344 188.381 160.262 188.88ZM189.335 192.375C189.476 191.846 189.023 191.4 187.973 191.039C186.925 190.678 185.766 190.505 184.501 190.523C183.231 190.542 181.439 190.771 179.122 191.212L187.213 193.999C188.487 193.447 189.192 192.905 189.335 192.375Z" fill="#44C4A1"/>
<path d="M242.333 165.783L206.758 153.526L137.618 177.871L74.935 185.106V199.941L142.761 223.31L274.585 176.896V162.061L242.333 165.783Z" fill="#31978C"/>
<path d="M206.758 138.691L74.935 185.106L142.761 208.475L274.585 162.061L206.758 138.691Z" fill="#3EA69B"/>
<path d="M133.809 202.051L93.4728 188.154C98.335 186.441 98.2918 183.681 93.3771 181.988L198.007 145.148C202.922 146.842 210.847 146.826 215.71 145.115L256.046 159.012C251.184 160.724 251.227 163.485 256.141 165.178L151.512 202.018C146.597 200.325 138.671 200.34 133.809 202.051Z" fill="#44C4A1"/>
<path d="M192.84 167.217C205.619 171.62 207.882 178.039 197.896 181.555C187.91 185.071 169.457 184.352 156.679 179.95C143.901 175.548 141.638 169.128 151.624 165.612C161.609 162.096 180.062 162.815 192.84 167.217Z" fill="#3EA69B"/>
<path d="M230.06 154.112C232.344 154.899 232.364 156.182 230.105 156.977C227.845 157.773 224.162 157.78 221.878 156.993C219.594 156.206 219.574 154.923 221.834 154.128C224.093 153.332 227.776 153.325 230.06 154.112Z" fill="#3EA69B"/>
<path d="M127.642 190.174C129.926 190.961 129.946 192.243 127.686 193.039C125.427 193.834 121.744 193.841 119.46 193.054C117.176 192.267 117.156 190.985 119.415 190.189C121.674 189.394 125.357 189.387 127.642 190.174Z" fill="#3EA69B"/>
<path d="M192.415 180.347L189.134 179.216C184.651 180.503 179.37 181.224 173.295 181.38L172.631 178.889C177.308 178.767 181.173 178.313 184.236 177.528L175.514 174.524C171.355 175.425 167.837 175.922 164.962 176.015C162.087 176.109 159.354 175.709 156.762 174.816C154.17 173.922 152.944 172.877 153.088 171.677C153.235 170.477 154.672 169.346 157.398 168.281L155.15 167.507L157.995 166.505L160.287 167.295C163.789 166.23 167.996 165.532 172.91 165.2L174.154 167.643C170.788 167.847 167.801 168.293 165.187 168.983L173.638 171.895L173.772 171.848C177.991 170.927 181.589 170.422 184.566 170.333C187.549 170.244 190.349 170.652 192.97 171.555C195.593 172.459 196.811 173.518 196.619 174.733C196.43 175.949 194.9 177.113 192.024 178.23L195.26 179.345L192.415 180.347ZM160.262 171.454C160.179 171.953 160.642 172.375 161.646 172.721C162.65 173.067 163.741 173.235 164.918 173.228C166.093 173.222 167.784 173.018 169.984 172.619L162.207 169.939C160.992 170.45 160.344 170.956 160.262 171.454ZM189.335 174.95C189.476 174.421 189.023 173.975 187.973 173.613C186.925 173.252 185.766 173.08 184.501 173.098C183.231 173.117 181.439 173.346 179.122 173.786L187.213 176.574C188.487 176.022 189.192 175.48 189.335 174.95Z" fill="#44C4A1"/>
<path d="M242.333 148.359L206.758 136.101L137.618 160.445L74.935 167.681V182.516L142.761 205.886L274.585 159.471V144.636L242.333 148.359Z" fill="#31978C"/>
<path d="M206.758 121.266L74.935 167.68L142.761 191.05L274.585 144.636L206.758 121.266Z" fill="#3EA69B"/>
<path d="M133.809 184.627L93.4728 170.729C98.335 169.017 98.2918 166.257 93.3771 164.563L198.007 127.724C202.922 129.418 210.847 129.402 215.71 127.69L256.046 141.588C251.184 143.3 251.227 146.06 256.141 147.754L151.512 184.594C146.597 182.9 138.671 182.915 133.809 184.627Z" fill="#44C4A1"/>
<path d="M192.84 149.792C205.619 154.195 207.882 160.614 197.896 164.13C187.91 167.646 169.457 166.927 156.679 162.525C143.901 158.122 141.638 151.703 151.624 148.187C161.609 144.671 180.062 145.39 192.84 149.792Z" fill="#3EA69B"/>
<path d="M230.06 136.687C232.344 137.474 232.364 138.757 230.105 139.552C227.845 140.348 224.162 140.355 221.878 139.568C219.594 138.781 219.574 137.498 221.834 136.703C224.093 135.907 227.776 135.9 230.06 136.687Z" fill="#3EA69B"/>
<path d="M127.642 172.748C129.926 173.535 129.946 174.818 127.686 175.613C125.427 176.409 121.744 176.416 119.46 175.629C117.176 174.842 117.156 173.559 119.415 172.764C121.674 171.968 125.357 171.961 127.642 172.748Z" fill="#3EA69B"/>
<path d="M192.415 162.922L189.134 161.791C184.651 163.078 179.37 163.799 173.295 163.955L172.631 161.464C177.308 161.341 181.173 160.888 184.236 160.103L175.514 157.098C171.355 157.999 167.837 158.496 164.962 158.59C162.087 158.683 159.354 158.283 156.762 157.39C154.17 156.497 152.944 155.452 153.088 154.251C153.235 153.052 154.672 151.92 157.398 150.855L155.15 150.081L157.995 149.079L160.287 149.869C163.789 148.804 167.996 148.106 172.91 147.775L174.154 150.218C170.788 150.422 167.801 150.868 165.187 151.558L173.638 154.47L173.772 154.423C177.991 153.502 181.589 152.997 184.566 152.909C187.549 152.819 190.349 153.227 192.97 154.13C195.593 155.034 196.811 156.093 196.619 157.308C196.43 158.524 194.9 159.688 192.024 160.805L195.26 161.921L192.415 162.922ZM160.262 154.029C160.179 154.527 160.642 154.949 161.646 155.295C162.65 155.641 163.741 155.81 164.918 155.802C166.093 155.796 167.784 155.592 169.984 155.193L162.207 152.513C160.992 153.026 160.344 153.53 160.262 154.029ZM189.335 157.524C189.476 156.995 189.023 156.549 187.973 156.188C186.925 155.827 185.766 155.655 184.501 155.672C183.231 155.691 181.439 155.92 179.122 156.361L187.213 159.148C188.487 158.596 189.192 158.055 189.335 157.524Z" fill="#44C4A1"/>
<path d="M242.333 130.933L206.758 118.676L137.618 143.02L74.935 150.255V165.091L142.761 188.46L274.585 142.046V127.21L242.333 130.933Z" fill="#31978C"/>
<path d="M206.758 103.841L74.935 150.255L142.761 173.625L274.585 127.21L206.758 103.841Z" fill="#3EA69B"/>
<path d="M133.809 167.201L93.4728 153.304C98.335 151.591 98.2918 148.831 93.3771 147.138L198.007 110.298C202.922 111.992 210.847 111.976 215.71 110.265L256.046 124.162C251.184 125.874 251.227 128.634 256.141 130.328L151.512 167.168C146.597 165.474 138.671 165.489 133.809 167.201Z" fill="#44C4A1"/>
<path d="M192.84 132.367C205.619 136.77 207.882 143.189 197.896 146.705C187.91 150.221 169.457 149.502 156.679 145.1C143.901 140.697 141.638 134.278 151.624 130.762C161.609 127.246 180.062 127.964 192.84 132.367Z" fill="#3EA69B"/>
<path d="M230.06 119.262C232.344 120.049 232.364 121.331 230.105 122.127C227.845 122.922 224.162 122.93 221.878 122.143C219.594 121.356 219.574 120.073 221.834 119.278C224.093 118.482 227.776 118.475 230.06 119.262Z" fill="#3EA69B"/>
<path d="M127.642 155.323C129.926 156.11 129.946 157.392 127.686 158.189C125.427 158.984 121.744 158.991 119.46 158.204C117.176 157.417 117.156 156.135 119.415 155.339C121.674 154.543 125.357 154.536 127.642 155.323Z" fill="#3EA69B"/>
<path d="M192.415 145.496L189.134 144.365C184.651 145.652 179.37 146.374 173.295 146.529L172.631 144.038C177.308 143.916 181.173 143.462 184.236 142.677L175.514 139.672C171.355 140.574 167.837 141.071 164.962 141.164C162.087 141.258 159.354 140.858 156.762 139.965C154.17 139.071 152.944 138.026 153.088 136.826C153.235 135.626 154.672 134.495 157.398 133.43L155.15 132.656L157.995 131.654L160.287 132.444C163.789 131.379 167.996 130.68 172.91 130.349L174.154 132.792C170.788 132.996 167.801 133.442 165.187 134.132L173.638 137.044L173.772 136.997C177.991 136.076 181.589 135.571 184.566 135.482C187.549 135.393 190.349 135.801 192.97 136.704C195.593 137.608 196.811 138.667 196.619 139.882C196.43 141.098 194.9 142.262 192.024 143.379L195.26 144.494L192.415 145.496ZM160.262 136.604C160.179 137.102 160.642 137.524 161.646 137.87C162.65 138.216 163.741 138.385 164.918 138.377C166.093 138.372 167.784 138.167 169.984 137.768L162.207 135.088C160.992 135.6 160.344 136.105 160.262 136.604ZM189.335 140.099C189.476 139.57 189.023 139.124 187.973 138.762C186.925 138.401 185.766 138.229 184.501 138.247C183.231 138.266 181.439 138.495 179.122 138.935L187.213 141.723C188.487 141.171 189.192 140.63 189.335 140.099Z" fill="#44C4A1"/>
<path d="M242.333 113.508L206.758 101.251L137.618 125.595L74.935 132.831V147.665L142.761 171.035L274.585 124.621V109.785L242.333 113.508Z" fill="#31978C"/>
<path d="M206.758 86.415L74.935 132.83L142.761 156.199L274.585 109.785L206.758 86.415Z" fill="#3EA69B"/>
<path d="M133.809 149.776L93.4728 135.878C98.335 134.166 98.2918 131.406 93.3771 129.712L198.007 92.8727C202.922 94.5664 210.847 94.5508 215.71 92.8394L256.046 106.737C251.184 108.449 251.227 111.209 256.141 112.903L151.512 149.742C146.597 148.049 138.671 148.064 133.809 149.776Z" fill="#44C4A1"/>
<path d="M192.84 114.941C205.619 119.344 207.882 125.763 197.896 129.279C187.91 132.795 169.457 132.076 156.679 127.674C143.901 123.271 141.638 116.852 151.624 113.336C161.609 109.82 180.062 110.539 192.84 114.941Z" fill="#3EA69B"/>
<path d="M230.06 101.836C232.344 102.623 232.364 103.906 230.105 104.701C227.845 105.497 224.162 105.504 221.878 104.717C219.594 103.93 219.574 102.647 221.834 101.852C224.093 101.056 227.776 101.049 230.06 101.836Z" fill="#3EA69B"/>
<path d="M127.642 137.897C129.926 138.684 129.946 139.967 127.686 140.762C125.427 141.558 121.744 141.565 119.46 140.778C117.176 139.991 117.156 138.708 119.415 137.913C121.674 137.117 125.357 137.11 127.642 137.897Z" fill="#3EA69B"/>
<path d="M192.415 128.072L189.134 126.941C184.651 128.228 179.37 128.949 173.295 129.105L172.631 126.614C177.308 126.491 181.173 126.038 184.236 125.253L175.514 122.248C171.355 123.149 167.837 123.646 164.962 123.74C162.087 123.833 159.354 123.434 156.762 122.54C154.17 121.647 152.944 120.602 153.088 119.402C153.235 118.202 154.672 117.07 157.398 116.006L155.15 115.231L157.995 114.23L160.287 115.019C163.789 113.954 167.996 113.256 172.91 112.924L174.154 115.367C170.788 115.572 167.801 116.018 165.187 116.707L173.638 119.619L173.772 119.572C177.991 118.651 181.589 118.147 184.566 118.058C187.549 117.969 190.349 118.376 192.97 119.28C195.593 120.184 196.811 121.243 196.619 122.457C196.43 123.673 194.9 124.837 192.024 125.955L195.26 127.07L192.415 128.072ZM160.262 119.179C160.179 119.677 160.642 120.099 161.646 120.445C162.65 120.791 163.741 120.96 164.918 120.952C166.093 120.946 167.784 120.742 169.984 120.343L162.207 117.663C160.992 118.175 160.344 118.68 160.262 119.179ZM189.335 122.674C189.476 122.145 189.023 121.699 187.973 121.338C186.925 120.977 185.766 120.805 184.501 120.822C183.231 120.842 181.439 121.071 179.122 121.511L187.213 124.299C188.487 123.746 189.192 123.205 189.335 122.674Z" fill="#44C4A1"/>
<path d="M193.199 138.441V222.999L223.526 212.322V127.763L193.199 138.441Z" fill="white"/>
<path d="M196.819 137.166V221.725L199.948 220.623V136.064L196.819 137.166Z" fill="#FCD462"/>
<path d="M216.777 130.139V214.697L219.907 213.596V129.037L216.777 130.139Z" fill="#FCD462"/>
<path d="M220.197 251.221C220.197 257.209 208.651 262.064 194.407 262.064C180.164 262.064 168.617 257.209 168.617 251.221V242.351H220.198L220.197 251.221Z" fill="#F6C358"/>
<path d="M194.399 253.195C208.644 253.195 220.192 248.34 220.192 242.352C220.192 236.364 208.644 231.51 194.399 231.51C180.154 231.51 168.606 236.364 168.606 242.352C168.606 248.34 180.154 253.195 194.399 253.195Z" fill="#FCD462"/>
<path d="M194.407 233.625C181.976 233.625 171.899 237.532 171.899 242.35C171.899 247.169 181.977 251.076 194.407 251.076C206.838 251.076 216.915 247.169 216.915 242.35C216.915 237.532 206.838 233.625 194.407 233.625ZM194.407 250.106C183.358 250.106 174.4 246.633 174.4 242.35C174.4 238.068 183.358 234.595 194.407 234.595C205.457 234.595 214.415 238.068 214.415 242.35C214.415 246.633 205.457 250.106 194.407 250.106Z" fill="#DC8744"/>
<path d="M193.583 248.378V247.317C190.154 247.181 187.077 246.653 184.354 245.732L187.092 244.467C189.193 245.175 191.354 245.596 193.582 245.732V242.911C190.755 242.65 188.685 242.305 187.373 241.879C186.06 241.452 185.404 240.82 185.404 239.981C185.404 239.142 186.158 238.457 187.672 237.923C189.186 237.39 191.155 237.099 193.582 237.051V236.323H195.981V237.065C198.732 237.143 201.333 237.507 203.784 238.156L201.345 239.494C199.694 239.038 197.908 238.757 195.981 238.65V241.384H196.094C198.97 241.646 201.082 242 202.432 242.445C203.784 242.891 204.459 243.539 204.459 244.387C204.459 245.235 203.683 245.926 202.132 246.459C200.582 246.993 198.533 247.283 195.981 247.332V248.378H193.583ZM190.936 238.991C190.298 239.209 189.98 239.48 189.98 239.805C189.98 240.13 190.231 240.386 190.731 240.576C191.229 240.765 192.181 240.947 193.583 241.122V238.605C192.456 238.644 191.574 238.773 190.936 238.991ZM198.834 245.368C199.533 245.145 199.884 244.864 199.884 244.525C199.884 244.186 199.608 243.916 199.059 243.718C198.507 243.519 197.481 243.333 195.982 243.158V245.775C197.182 245.727 198.132 245.591 198.834 245.368Z" fill="#DC8744"/>
<path d="M220.197 240.448C220.197 246.437 208.651 251.291 194.407 251.291C180.164 251.291 168.617 246.436 168.617 240.448V231.578H220.198L220.197 240.448Z" fill="#F6C358"/>
<path d="M194.399 242.418C208.644 242.418 220.192 237.564 220.192 231.575C220.192 225.587 208.644 220.733 194.399 220.733C180.154 220.733 168.606 225.587 168.606 231.575C168.606 237.564 180.154 242.418 194.399 242.418Z" fill="#FCD462"/>
<path d="M194.407 222.852C181.976 222.852 171.899 226.759 171.899 231.578C171.899 236.396 181.977 240.303 194.407 240.303C206.838 240.303 216.915 236.396 216.915 231.578C216.915 226.759 206.838 222.852 194.407 222.852ZM194.407 239.333C183.358 239.333 174.4 235.86 174.4 231.578C174.4 227.294 183.358 223.822 194.407 223.822C205.457 223.822 214.415 227.295 214.415 231.578C214.415 235.861 205.457 239.333 194.407 239.333Z" fill="#DC8744"/>
<path d="M193.583 237.605V236.544C190.154 236.408 187.077 235.88 184.354 234.959L187.092 233.694C189.193 234.402 191.354 234.823 193.582 234.959V232.138C190.755 231.877 188.685 231.532 187.373 231.106C186.06 230.679 185.404 230.047 185.404 229.208C185.404 228.369 186.158 227.684 187.672 227.15C189.186 226.617 191.155 226.326 193.582 226.278V225.55H195.981V226.292C198.732 226.37 201.333 226.734 203.784 227.383L201.345 228.721C199.694 228.265 197.908 227.984 195.981 227.877V230.611H196.094C198.97 230.873 201.082 231.227 202.432 231.672C203.784 232.118 204.459 232.766 204.459 233.614C204.459 234.462 203.683 235.154 202.132 235.686C200.582 236.22 198.533 236.51 195.981 236.559V237.605H193.583ZM190.936 228.218C190.298 228.436 189.98 228.707 189.98 229.032C189.98 229.357 190.231 229.613 190.731 229.803C191.229 229.992 192.181 230.174 193.583 230.349V227.833C192.456 227.872 191.574 228 190.936 228.218ZM198.834 234.595C199.533 234.372 199.884 234.091 199.884 233.752C199.884 233.413 199.608 233.144 199.059 232.945C198.507 232.747 197.481 232.56 195.982 232.385V235.002C197.182 234.954 198.132 234.818 198.834 234.595Z" fill="#DC8744"/>
<path d="M220.197 229.675C220.197 235.664 208.651 240.518 194.407 240.518C180.164 240.518 168.617 235.663 168.617 229.675V220.805H220.198L220.197 229.675Z" fill="#F6C358"/>
<path d="M194.399 231.648C208.644 231.648 220.192 226.794 220.192 220.806C220.192 214.818 208.644 209.963 194.399 209.963C180.154 209.963 168.606 214.818 168.606 220.806C168.606 226.794 180.154 231.648 194.399 231.648Z" fill="#FCD462"/>
<path d="M194.407 212.079C181.976 212.079 171.899 215.986 171.899 220.805C171.899 225.624 181.977 229.53 194.407 229.53C206.838 229.53 216.915 225.624 216.915 220.805C216.915 215.986 206.838 212.079 194.407 212.079ZM194.407 228.561C183.358 228.561 174.4 225.088 174.4 220.805C174.4 216.522 183.358 213.05 194.407 213.05C205.457 213.05 214.415 216.522 214.415 220.805C214.415 225.088 205.457 228.561 194.407 228.561Z" fill="#DC8744"/>
<path d="M193.583 226.832V225.771C190.154 225.635 187.077 225.107 184.354 224.186L187.092 222.921C189.193 223.629 191.354 224.05 193.582 224.186V221.365C190.755 221.104 188.685 220.759 187.373 220.333C186.06 219.907 185.404 219.274 185.404 218.435C185.404 217.596 186.158 216.911 187.672 216.377C189.186 215.844 191.155 215.553 193.582 215.505V214.777H195.981V215.519C198.732 215.597 201.333 215.961 203.784 216.61L201.345 217.948C199.694 217.492 197.908 217.211 195.981 217.104V219.838H196.094C198.97 220.1 201.082 220.454 202.432 220.899C203.784 221.345 204.459 221.993 204.459 222.841C204.459 223.689 203.683 224.381 202.132 224.913C200.582 225.447 198.533 225.738 195.981 225.786V226.832H193.583ZM190.936 217.445C190.298 217.663 189.98 217.934 189.98 218.259C189.98 218.584 190.231 218.841 190.731 219.03C191.229 219.219 192.181 219.401 193.583 219.576V217.06C192.456 217.099 191.574 217.228 190.936 217.445ZM198.834 223.822C199.533 223.599 199.884 223.318 199.884 222.979C199.884 222.64 199.608 222.371 199.059 222.172C198.507 221.974 197.481 221.787 195.982 221.612V224.229C197.182 224.181 198.132 224.045 198.834 223.822Z" fill="#DC8744"/>
<path d="M220.197 218.902C220.197 224.891 208.651 229.746 194.407 229.746C180.164 229.746 168.617 224.89 168.617 218.902V210.032H220.198L220.197 218.902Z" fill="#F6C358"/>
<path d="M194.399 220.872C208.644 220.872 220.192 216.018 220.192 210.03C220.192 204.041 208.644 199.187 194.399 199.187C180.154 199.187 168.606 204.041 168.606 210.03C168.606 216.018 180.154 220.872 194.399 220.872Z" fill="#FCD462"/>
<path d="M194.407 201.306C181.976 201.306 171.899 205.213 171.899 210.032C171.899 214.851 181.977 218.757 194.407 218.757C206.838 218.757 216.915 214.851 216.915 210.032C216.915 205.213 206.838 201.306 194.407 201.306ZM194.407 217.788C183.358 217.788 174.4 214.315 174.4 210.032C174.4 205.749 183.358 202.277 194.407 202.277C205.457 202.277 214.415 205.749 214.415 210.032C214.415 214.315 205.457 217.788 194.407 217.788Z" fill="#DC8744"/>
<path d="M193.583 216.059V214.998C190.154 214.862 187.077 214.334 184.354 213.413L187.092 212.149C189.193 212.856 191.354 213.277 193.582 213.413V210.592C190.755 210.331 188.685 209.986 187.373 209.56C186.06 209.134 185.404 208.501 185.404 207.662C185.404 206.823 186.158 206.138 187.672 205.604C189.186 205.071 191.155 204.78 193.582 204.732V204.004H195.981V204.746C198.732 204.824 201.333 205.188 203.784 205.837L201.345 207.175C199.694 206.719 197.908 206.438 195.981 206.331V209.065H196.094C198.97 209.327 201.082 209.681 202.432 210.126C203.784 210.572 204.459 211.22 204.459 212.068C204.459 212.916 203.683 213.608 202.132 214.14C200.582 214.674 198.533 214.965 195.981 215.013V216.059H193.583ZM190.936 206.673C190.298 206.891 189.98 207.162 189.98 207.487C189.98 207.812 190.231 208.068 190.731 208.258C191.229 208.447 192.181 208.628 193.583 208.804V206.287C192.456 206.326 191.574 206.455 190.936 206.673ZM198.834 213.049C199.533 212.826 199.884 212.546 199.884 212.206C199.884 211.867 199.608 211.598 199.059 211.399C198.507 211.201 197.481 211.014 195.982 210.839V213.456C197.182 213.408 198.132 213.272 198.834 213.049Z" fill="#DC8744"/>
<path d="M220.197 208.129C220.197 214.118 208.651 218.973 194.407 218.973C180.164 218.973 168.617 214.117 168.617 208.129V199.259H220.198L220.197 208.129Z" fill="#F6C358"/>
<path d="M194.399 210.102C208.644 210.102 220.192 205.248 220.192 199.26C220.192 193.272 208.644 188.417 194.399 188.417C180.154 188.417 168.606 193.272 168.606 199.26C168.606 205.248 180.154 210.102 194.399 210.102Z" fill="#FCD462"/>
<path d="M194.407 190.533C181.976 190.533 171.899 194.44 171.899 199.259C171.899 204.078 181.977 207.984 194.407 207.984C206.838 207.984 216.915 204.078 216.915 199.259C216.915 194.44 206.838 190.533 194.407 190.533ZM194.407 207.015C183.358 207.015 174.4 203.542 174.4 199.259C174.4 194.976 183.358 191.504 194.407 191.504C205.457 191.504 214.415 194.976 214.415 199.259C214.415 203.542 205.457 207.015 194.407 207.015Z" fill="#DC8744"/>
<path d="M193.583 205.286V204.225C190.154 204.09 187.077 203.561 184.354 202.64L187.092 201.376C189.193 202.083 191.354 202.504 193.582 202.64V199.819C190.755 199.558 188.685 199.213 187.373 198.787C186.06 198.361 185.404 197.728 185.404 196.889C185.404 196.05 186.158 195.365 187.672 194.831C189.186 194.298 191.155 194.007 193.582 193.959V193.231H195.981V193.973C198.732 194.051 201.333 194.415 203.784 195.064L201.345 196.402C199.694 195.946 197.908 195.665 195.981 195.558V198.292H196.094C198.97 198.554 201.082 198.908 202.432 199.354C203.784 199.799 204.459 200.447 204.459 201.295C204.459 202.143 203.683 202.835 202.132 203.367C200.582 203.901 198.533 204.192 195.981 204.24V205.286H193.583ZM190.936 195.9C190.298 196.118 189.98 196.389 189.98 196.714C189.98 197.039 190.231 197.295 190.731 197.485C191.229 197.674 192.181 197.855 193.583 198.031V195.514C192.456 195.553 191.574 195.682 190.936 195.9ZM198.834 202.276C199.533 202.053 199.884 201.773 199.884 201.433C199.884 201.094 199.608 200.825 199.059 200.626C198.507 200.428 197.481 200.241 195.982 200.066V202.683C197.182 202.635 198.132 202.499 198.834 202.276Z" fill="#DC8744"/>
<path d="M220.197 197.356C220.197 203.345 208.651 208.2 194.407 208.2C180.164 208.2 168.617 203.345 168.617 197.356V188.486H220.198L220.197 197.356Z" fill="#F6C358"/>
<path d="M194.399 199.326C208.644 199.326 220.192 194.472 220.192 188.484C220.192 182.495 208.644 177.641 194.399 177.641C180.154 177.641 168.606 182.495 168.606 188.484C168.606 194.472 180.154 199.326 194.399 199.326Z" fill="#FCD462"/>
<path d="M194.407 179.76C181.976 179.76 171.899 183.667 171.899 188.486C171.899 193.305 181.977 197.211 194.407 197.211C206.838 197.211 216.915 193.305 216.915 188.486C216.915 183.667 206.838 179.76 194.407 179.76ZM194.407 196.242C183.358 196.242 174.4 192.769 174.4 188.486C174.4 184.203 183.358 180.731 194.407 180.731C205.457 180.731 214.415 184.203 214.415 188.486C214.415 192.769 205.457 196.242 194.407 196.242Z" fill="#DC8744"/>
<path d="M193.583 194.513V193.452C190.154 193.317 187.077 192.788 184.354 191.867L187.092 190.603C189.193 191.31 191.354 191.731 193.582 191.867V189.046C190.755 188.785 188.685 188.44 187.373 188.014C186.06 187.588 185.404 186.955 185.404 186.116C185.404 185.277 186.158 184.592 187.672 184.058C189.186 183.525 191.155 183.234 193.582 183.186V182.458H195.981V183.2C198.732 183.278 201.333 183.642 203.784 184.291L201.345 185.629C199.694 185.173 197.908 184.892 195.981 184.785V187.519H196.094C198.97 187.782 201.082 188.135 202.432 188.581C203.784 189.027 204.459 189.674 204.459 190.522C204.459 191.37 203.683 192.062 202.132 192.594C200.582 193.128 198.533 193.419 195.981 193.467V194.513H193.583ZM190.936 185.127C190.298 185.345 189.98 185.616 189.98 185.941C189.98 186.266 190.231 186.522 190.731 186.712C191.229 186.901 192.181 187.082 193.583 187.258V184.741C192.456 184.78 191.574 184.909 190.936 185.127ZM198.834 191.503C199.533 191.28 199.884 191 199.884 190.66C199.884 190.321 199.608 190.052 199.059 189.853C198.507 189.655 197.481 189.468 195.982 189.293V191.91C197.182 191.862 198.132 191.726 198.834 191.503Z" fill="#DC8744"/>
<path d="M220.197 186.583C220.197 192.572 208.651 197.427 194.407 197.427C180.164 197.427 168.617 192.572 168.617 186.583V177.713H220.198L220.197 186.583Z" fill="#F6C358"/>
<path d="M194.399 188.557C208.644 188.557 220.192 183.702 220.192 177.714C220.192 171.726 208.644 166.872 194.399 166.872C180.154 166.872 168.606 171.726 168.606 177.714C168.606 183.702 180.154 188.557 194.399 188.557Z" fill="#FCD462"/>
<path d="M194.407 168.988C181.976 168.988 171.899 172.894 171.899 177.713C171.899 182.532 181.977 186.439 194.407 186.439C206.838 186.439 216.915 182.532 216.915 177.713C216.915 172.894 206.838 168.988 194.407 168.988ZM194.407 185.469C183.358 185.469 174.4 181.996 174.4 177.713C174.4 173.43 183.358 169.958 194.407 169.958C205.457 169.958 214.415 173.43 214.415 177.713C214.415 181.996 205.457 185.469 194.407 185.469Z" fill="#DC8744"/>
<path d="M193.583 183.74V182.679C190.154 182.544 187.077 182.015 184.354 181.094L187.092 179.83C189.193 180.537 191.354 180.958 193.582 181.094V178.273C190.755 178.012 188.685 177.667 187.373 177.241C186.06 176.814 185.404 176.182 185.404 175.343C185.404 174.504 186.158 173.819 187.672 173.285C189.186 172.752 191.155 172.461 193.582 172.413V171.686H195.981V172.427C198.732 172.505 201.333 172.869 203.784 173.518L201.345 174.856C199.694 174.4 197.908 174.119 195.981 174.012V176.746H196.094C198.97 177.009 201.082 177.362 202.432 177.808C203.784 178.254 204.459 178.901 204.459 179.749C204.459 180.597 203.683 181.289 202.132 181.821C200.582 182.355 198.533 182.646 195.981 182.694V183.74H193.583ZM190.936 174.354C190.298 174.572 189.98 174.843 189.98 175.168C189.98 175.493 190.231 175.749 190.731 175.939C191.229 176.128 192.181 176.31 193.583 176.485V173.968C192.456 174.007 191.574 174.136 190.936 174.354ZM198.834 180.731C199.533 180.508 199.884 180.227 199.884 179.888C199.884 179.549 199.608 179.279 199.059 179.081C198.507 178.882 197.481 178.696 195.982 178.521V181.138C197.182 181.089 198.132 180.953 198.834 180.731Z" fill="#DC8744"/>
<path d="M220.197 175.811C220.197 181.799 208.651 186.654 194.407 186.654C180.164 186.654 168.617 181.799 168.617 175.811V166.94H220.198L220.197 175.811Z" fill="#F6C358"/>
<path d="M194.399 177.78C208.644 177.78 220.192 172.925 220.192 166.937C220.192 160.949 208.644 156.095 194.399 156.095C180.154 156.095 168.606 160.949 168.606 166.937C168.606 172.925 180.154 177.78 194.399 177.78Z" fill="#FCD462"/>
<path d="M194.407 158.215C181.976 158.215 171.899 162.121 171.899 166.94C171.899 171.759 181.977 175.666 194.407 175.666C206.838 175.666 216.915 171.759 216.915 166.94C216.915 162.121 206.838 158.215 194.407 158.215ZM194.407 174.696C183.358 174.696 174.4 171.223 174.4 166.94C174.4 162.657 183.358 159.185 194.407 159.185C205.457 159.185 214.415 162.657 214.415 166.94C214.415 171.223 205.457 174.696 194.407 174.696Z" fill="#DC8744"/>
<path d="M193.583 172.967V171.906C190.154 171.771 187.077 171.242 184.354 170.322L187.092 169.057C189.193 169.764 191.354 170.185 193.582 170.322V167.5C190.755 167.239 188.685 166.894 187.373 166.468C186.06 166.041 185.404 165.409 185.404 164.57C185.404 163.732 186.158 163.046 187.672 162.512C189.186 161.979 191.155 161.688 193.582 161.64V160.913H195.981V161.654C198.732 161.732 201.333 162.096 203.784 162.745L201.345 164.083C199.694 163.627 197.908 163.347 195.981 163.239V165.973H196.094C198.97 166.236 201.082 166.589 202.432 167.035C203.784 167.481 204.459 168.128 204.459 168.976C204.459 169.825 203.683 170.516 202.132 171.048C200.582 171.582 198.533 171.873 195.981 171.921V172.967H193.583ZM190.936 163.581C190.298 163.799 189.98 164.07 189.98 164.395C189.98 164.72 190.231 164.976 190.731 165.166C191.229 165.355 192.181 165.537 193.583 165.712V163.196C192.456 163.235 191.574 163.363 190.936 163.581ZM198.834 169.958C199.533 169.735 199.884 169.454 199.884 169.115C199.884 168.776 199.608 168.507 199.059 168.308C198.507 168.109 197.481 167.923 195.982 167.748V170.365C197.182 170.317 198.132 170.18 198.834 169.958Z" fill="#DC8744"/>
<path d="M274.585 251.221C274.585 257.209 263.039 262.064 248.795 262.064C234.552 262.064 223.005 257.209 223.005 251.221V242.351H274.586L274.585 251.221Z" fill="#F6C358"/>
<path d="M248.813 253.195C263.058 253.195 274.606 248.34 274.606 242.352C274.606 236.364 263.058 231.51 248.813 231.51C234.568 231.51 223.021 236.364 223.021 242.352C223.021 248.34 234.568 253.195 248.813 253.195Z" fill="#FCD462"/>
<path d="M248.795 233.625C236.364 233.625 226.287 237.532 226.287 242.35C226.287 247.169 236.364 251.076 248.795 251.076C261.226 251.076 271.303 247.169 271.303 242.35C271.303 237.532 261.226 233.625 248.795 233.625ZM248.795 250.106C237.745 250.106 228.787 246.633 228.787 242.35C228.787 238.068 237.745 234.595 248.795 234.595C259.844 234.595 268.803 238.068 268.803 242.35C268.803 246.633 259.844 250.106 248.795 250.106Z" fill="#DC8744"/>
<path d="M247.97 248.378V247.317C244.542 247.181 241.465 246.653 238.742 245.732L241.48 244.467C243.58 245.175 245.741 245.596 247.97 245.732V242.911C245.143 242.65 243.073 242.305 241.76 241.879C240.447 241.452 239.792 240.82 239.792 239.981C239.792 239.142 240.546 238.457 242.06 237.923C243.574 237.39 245.543 237.099 247.97 237.051V236.323H250.369V237.065C253.12 237.143 255.72 237.507 258.172 238.156L255.733 239.494C254.081 239.038 252.295 238.757 250.369 238.65V241.384H250.482C253.357 241.646 255.47 242 256.819 242.445C258.172 242.891 258.846 243.539 258.846 244.387C258.846 245.235 258.071 245.926 256.52 246.459C254.97 246.993 252.921 247.283 250.369 247.332V248.378H247.97ZM245.324 238.991C244.686 239.209 244.368 239.48 244.368 239.805C244.368 240.13 244.618 240.386 245.119 240.576C245.617 240.765 246.569 240.947 247.97 241.122V238.605C246.844 238.644 245.962 238.773 245.324 238.991ZM253.221 245.368C253.92 245.145 254.271 244.864 254.271 244.525C254.271 244.186 253.996 243.916 253.447 243.718C252.894 243.519 251.868 243.333 250.37 243.158V245.775C251.57 245.727 252.519 245.591 253.221 245.368Z" fill="#DC8744"/>
<path d="M274.585 240.448C274.585 246.437 263.039 251.291 248.795 251.291C234.552 251.291 223.005 246.436 223.005 240.448V231.578H274.586L274.585 240.448Z" fill="#F6C358"/>
<path d="M248.813 242.418C263.058 242.418 274.606 237.564 274.606 231.575C274.606 225.587 263.058 220.733 248.813 220.733C234.568 220.733 223.021 225.587 223.021 231.575C223.021 237.564 234.568 242.418 248.813 242.418Z" fill="#FCD462"/>
<path d="M248.795 222.852C236.364 222.852 226.287 226.759 226.287 231.578C226.287 236.396 236.364 240.303 248.795 240.303C261.226 240.303 271.303 236.396 271.303 231.578C271.303 226.759 261.226 222.852 248.795 222.852ZM248.795 239.333C237.745 239.333 228.787 235.86 228.787 231.578C228.787 227.294 237.745 223.822 248.795 223.822C259.844 223.822 268.803 227.295 268.803 231.578C268.802 235.861 259.844 239.333 248.795 239.333Z" fill="#DC8744"/>
<path d="M247.97 237.605V236.544C244.542 236.408 241.465 235.88 238.742 234.959L241.48 233.694C243.58 234.402 245.741 234.823 247.97 234.959V232.138C245.143 231.877 243.073 231.532 241.76 231.106C240.447 230.679 239.792 230.047 239.792 229.208C239.792 228.369 240.546 227.684 242.06 227.15C243.574 226.617 245.543 226.326 247.97 226.278V225.55H250.369V226.292C253.12 226.37 255.72 226.734 258.172 227.383L255.733 228.721C254.081 228.265 252.295 227.984 250.369 227.877V230.611H250.482C253.357 230.873 255.47 231.227 256.819 231.672C258.172 232.118 258.846 232.766 258.846 233.614C258.846 234.462 258.071 235.154 256.52 235.686C254.97 236.22 252.921 236.51 250.369 236.559V237.605H247.97ZM245.324 228.218C244.686 228.436 244.368 228.707 244.368 229.032C244.368 229.357 244.618 229.613 245.119 229.803C245.617 229.992 246.569 230.174 247.97 230.349V227.833C246.844 227.872 245.962 228 245.324 228.218ZM253.221 234.595C253.92 234.372 254.271 234.091 254.271 233.752C254.271 233.413 253.996 233.144 253.447 232.945C252.894 232.747 251.868 232.56 250.37 232.385V235.002C251.57 234.954 252.519 234.818 253.221 234.595Z" fill="#DC8744"/>
<path d="M274.585 229.675C274.585 235.664 263.039 240.518 248.795 240.518C234.552 240.518 223.005 235.663 223.005 229.675V220.805H274.586L274.585 229.675Z" fill="#F6C358"/>
<path d="M248.813 231.648C263.058 231.648 274.606 226.794 274.606 220.806C274.606 214.818 263.058 209.963 248.813 209.963C234.568 209.963 223.021 214.818 223.021 220.806C223.021 226.794 234.568 231.648 248.813 231.648Z" fill="#FCD462"/>
<path d="M248.795 212.079C236.364 212.079 226.287 215.986 226.287 220.805C226.287 225.624 236.364 229.53 248.795 229.53C261.226 229.53 271.303 225.624 271.303 220.805C271.303 215.986 261.226 212.079 248.795 212.079ZM248.795 228.561C237.745 228.561 228.787 225.088 228.787 220.805C228.787 216.522 237.745 213.05 248.795 213.05C259.844 213.05 268.803 216.522 268.803 220.805C268.802 225.088 259.844 228.561 248.795 228.561Z" fill="#DC8744"/>
<path d="M247.97 226.832V225.771C244.542 225.635 241.465 225.107 238.742 224.186L241.48 222.921C243.58 223.629 245.741 224.05 247.97 224.186V221.365C245.143 221.104 243.073 220.759 241.76 220.333C240.448 219.907 239.792 219.274 239.792 218.435C239.792 217.596 240.546 216.911 242.06 216.377C243.574 215.844 245.543 215.553 247.97 215.505V214.777H250.369V215.519C253.12 215.597 255.72 215.961 258.172 216.61L255.733 217.948C254.081 217.492 252.295 217.211 250.369 217.104V219.838H250.482C253.357 220.1 255.47 220.454 256.819 220.899C258.172 221.345 258.846 221.993 258.846 222.841C258.846 223.689 258.071 224.381 256.52 224.913C254.97 225.447 252.921 225.738 250.369 225.786V226.832H247.97ZM245.324 217.445C244.686 217.663 244.368 217.934 244.368 218.259C244.368 218.584 244.618 218.841 245.119 219.03C245.617 219.219 246.569 219.401 247.97 219.576V217.06C246.844 217.099 245.962 217.228 245.324 217.445ZM253.221 223.822C253.92 223.599 254.271 223.318 254.271 222.979C254.271 222.64 253.996 222.371 253.447 222.172C252.894 221.974 251.868 221.787 250.37 221.612V224.229C251.57 224.181 252.519 224.045 253.221 223.822Z" fill="#DC8744"/>
<path d="M274.585 218.902C274.585 224.891 263.039 229.746 248.795 229.746C234.552 229.746 223.005 224.89 223.005 218.902V210.032H274.586L274.585 218.902Z" fill="#F6C358"/>
<path d="M248.813 220.872C263.058 220.872 274.606 216.018 274.606 210.03C274.606 204.041 263.058 199.187 248.813 199.187C234.568 199.187 223.021 204.041 223.021 210.03C223.021 216.018 234.568 220.872 248.813 220.872Z" fill="#FCD462"/>
<path d="M248.795 201.306C236.364 201.306 226.287 205.213 226.287 210.032C226.287 214.851 236.364 218.757 248.795 218.757C261.226 218.757 271.303 214.851 271.303 210.032C271.303 205.213 261.226 201.306 248.795 201.306ZM248.795 217.788C237.745 217.788 228.787 214.315 228.787 210.032C228.787 205.749 237.745 202.277 248.795 202.277C259.844 202.277 268.803 205.749 268.803 210.032C268.802 214.315 259.844 217.788 248.795 217.788Z" fill="#DC8744"/>
<path d="M247.97 216.059V214.998C244.542 214.862 241.465 214.334 238.742 213.413L241.48 212.149C243.58 212.856 245.741 213.277 247.97 213.413V210.592C245.143 210.331 243.073 209.986 241.76 209.56C240.448 209.134 239.792 208.501 239.792 207.662C239.792 206.823 240.546 206.138 242.06 205.604C243.574 205.071 245.543 204.78 247.97 204.732V204.004H250.369V204.746C253.12 204.824 255.72 205.188 258.172 205.837L255.733 207.175C254.081 206.719 252.295 206.438 250.369 206.331V209.065H250.482C253.357 209.327 255.47 209.681 256.819 210.126C258.172 210.572 258.846 211.22 258.846 212.068C258.846 212.916 258.071 213.608 256.52 214.14C254.97 214.674 252.921 214.965 250.369 215.013V216.059H247.97ZM245.324 206.673C244.686 206.891 244.368 207.162 244.368 207.487C244.368 207.812 244.618 208.068 245.119 208.258C245.617 208.447 246.569 208.628 247.97 208.804V206.287C246.844 206.326 245.962 206.455 245.324 206.673ZM253.221 213.049C253.92 212.826 254.271 212.546 254.271 212.206C254.271 211.867 253.996 211.598 253.447 211.399C252.894 211.201 251.868 211.014 250.37 210.839V213.456C251.57 213.408 252.519 213.272 253.221 213.049Z" fill="#DC8744"/>
<path d="M274.585 208.129C274.585 214.118 263.039 218.973 248.795 218.973C234.552 218.973 223.005 214.117 223.005 208.129V199.259H274.586L274.585 208.129Z" fill="#F6C358"/>
<path d="M248.813 210.102C263.058 210.102 274.606 205.248 274.606 199.26C274.606 193.272 263.058 188.417 248.813 188.417C234.568 188.417 223.021 193.272 223.021 199.26C223.021 205.248 234.568 210.102 248.813 210.102Z" fill="#FCD462"/>
<path d="M248.795 190.533C236.364 190.533 226.287 194.44 226.287 199.259C226.287 204.078 236.364 207.984 248.795 207.984C261.226 207.984 271.303 204.078 271.303 199.259C271.303 194.44 261.226 190.533 248.795 190.533ZM248.795 207.015C237.745 207.015 228.787 203.542 228.787 199.259C228.787 194.976 237.745 191.504 248.795 191.504C259.844 191.504 268.803 194.976 268.803 199.259C268.802 203.542 259.844 207.015 248.795 207.015Z" fill="#DC8744"/>
<path d="M247.97 205.286V204.225C244.542 204.09 241.465 203.561 238.742 202.64L241.48 201.376C243.58 202.083 245.741 202.504 247.97 202.64V199.819C245.143 199.558 243.073 199.213 241.76 198.787C240.448 198.361 239.792 197.728 239.792 196.889C239.792 196.05 240.546 195.365 242.06 194.831C243.574 194.298 245.543 194.007 247.97 193.959V193.231H250.369V193.973C253.12 194.051 255.72 194.415 258.172 195.064L255.733 196.402C254.081 195.946 252.295 195.665 250.369 195.558V198.292H250.482C253.357 198.554 255.47 198.908 256.819 199.354C258.172 199.799 258.846 200.447 258.846 201.295C258.846 202.143 258.071 202.835 256.52 203.367C254.97 203.901 252.921 204.192 250.369 204.24V205.286H247.97ZM245.324 195.9C244.686 196.118 244.368 196.389 244.368 196.714C244.368 197.039 244.618 197.295 245.119 197.485C245.617 197.674 246.569 197.855 247.97 198.031V195.514C246.844 195.553 245.962 195.682 245.324 195.9ZM253.221 202.276C253.92 202.053 254.271 201.773 254.271 201.433C254.271 201.094 253.996 200.825 253.447 200.626C252.894 200.428 251.868 200.241 250.37 200.066V202.683C251.57 202.635 252.519 202.499 253.221 202.276Z" fill="#DC8744"/>
<path d="M203.119 262.048C218.797 262.048 231.507 249.338 231.507 233.66C231.507 217.982 218.797 205.272 203.119 205.272C187.441 205.272 174.732 217.982 174.732 233.66C174.732 249.338 187.441 262.048 203.119 262.048Z" fill="#FCD462"/>
<path d="M203.119 208.898C189.435 208.898 178.342 219.991 178.342 233.675C178.342 247.359 189.435 258.452 203.119 258.452C216.803 258.452 227.896 247.359 227.896 233.675C227.896 219.991 216.802 208.898 203.119 208.898ZM203.119 255.698C190.955 255.698 181.095 245.838 181.095 233.675C181.095 221.512 190.956 211.652 203.119 211.652C215.281 211.652 225.142 221.513 225.142 233.675C225.143 245.839 215.282 255.698 203.119 255.698Z" fill="#DC8744"/>
<path d="M202.211 250.791V247.776C198.437 247.391 195.05 245.891 192.052 243.276L195.067 239.684C197.379 241.693 199.758 242.89 202.211 243.276V235.265C199.099 234.522 196.821 233.544 195.376 232.332C193.931 231.121 193.208 229.325 193.208 226.944C193.208 224.563 194.039 222.616 195.706 221.1C197.372 219.586 199.54 218.761 202.211 218.623V216.558H204.853V218.664C207.881 218.886 210.744 219.917 213.442 221.762L210.757 225.561C208.939 224.267 206.973 223.469 204.853 223.165V230.928H204.977C208.143 231.672 210.468 232.677 211.953 233.942C213.442 235.209 214.185 237.048 214.185 239.455C214.185 241.865 213.331 243.828 211.624 245.339C209.916 246.855 207.662 247.68 204.852 247.818V250.79H202.211V250.791ZM199.298 224.137C198.595 224.755 198.246 225.527 198.246 226.449C198.246 227.372 198.522 228.101 199.073 228.637C199.621 229.174 200.668 229.691 202.211 230.186V223.042C200.971 223.152 200 223.517 199.298 224.137ZM207.992 242.243C208.761 241.611 209.148 240.813 209.148 239.849C209.148 238.886 208.845 238.122 208.24 237.557C207.632 236.992 206.503 236.463 204.853 235.967V243.399C206.174 243.263 207.219 242.877 207.992 242.243Z" fill="#DC8744"/>
</g>
<defs>
<clipPath id="clip0">
<rect width="348.48" height="348.48" fill="white" transform="translate(0.52002)"/>
</clipPath>
</defs>
</svg>
