<svg width="233" height="233" viewBox="0 0 233 233" fill="none" xmlns="http://www.w3.org/2000/svg">
<g clip-path="url(#clip0)">
<path fill-rule="evenodd" clip-rule="evenodd" d="M184.22 9.14798C220.527 20.1345 241.038 58.3988 230.024 94.6271C223.052 117.551 205.12 134.164 183.682 140.489C174.387 158.12 165.938 163.721 153.137 163.453C149.981 163.386 154.024 160.559 156.657 150.523C158.47 143.637 144.46 140.542 144.339 140.314C108.018 129.328 87.507 91.0634 98.5212 54.8351C109.536 18.6204 147.912 -1.83851 184.22 9.14798Z" fill="white"/>
<path fill-rule="evenodd" clip-rule="evenodd" d="M60.3202 110.731C64.323 106.739 63.9603 100.549 60.3202 96.2081L43.0058 75.5484C26.3499 55.6925 12.3799 63.7446 7.04734 77.6386C-2.66402 102.947 -4.16851 127.064 14.3545 145.539L81.489 212.502C100.012 230.978 124.19 229.478 149.564 219.791C163.493 214.472 171.566 200.525 151.659 183.924L130.947 166.655C126.595 163.024 120.389 162.662 116.386 166.655L110.852 172.161C93.4303 183.831 39.7279 125.335 54.7991 116.252L60.3202 110.731Z" fill="#71AAF8"/>
<path fill-rule="evenodd" clip-rule="evenodd" d="M193.192 84.7529C197.101 84.7529 200.312 81.5641 200.312 77.6655V67.3224C200.312 63.4238 197.102 60.2351 193.192 60.2351H176.563V43.6479C176.563 39.7493 173.367 36.5605 169.458 36.5605H159.102C155.179 36.5605 151.982 39.7493 151.982 43.6479V60.2346H135.353C131.445 60.2346 128.248 63.4233 128.248 67.322V77.665C128.248 81.5637 131.445 84.7524 135.353 84.7524H151.982V101.339C151.982 105.238 155.179 108.426 159.102 108.426H169.458C173.367 108.426 176.563 105.238 176.563 101.339V84.7524H193.192V84.7529Z" fill="#EC5347"/>
</g>
<defs>
<clipPath id="clip0">
<rect width="233" height="233" fill="white"/>
</clipPath>
</defs>
</svg>
